<svg width="180" height="180" viewBox="0 0 200 200" xmlns="http://www.w3.org/2000/svg">
  <rect width="200" height="200" rx="36" fill="#f0ebe0"/>
  <circle cx="100" cy="100" r="80" fill="none" stroke="#1e3a5f" stroke-width="8"/>
  <circle cx="100" cy="100" r="62" fill="none" stroke="#1e3a5f" stroke-width="8"/>
  <circle cx="100" cy="100" r="44" fill="none" stroke="#1e3a5f" stroke-width="8"/>
  <circle cx="100" cy="100" r="26" fill="none" stroke="#1e3a5f" stroke-width="8"/>
  <rect x="66" y="38" width="18" height="124" fill="#1e3a5f"/>
  <path d="M 84 38 L 124 38 Q 144 38 144 64 Q 144 90 124 90 L 84 90 Z" fill="#1e3a5f"/>
  <path d="M 94 50 L 121 50 Q 132 50 132 64 Q 132 78 121 78 L 94 78 Z" fill="#f0ebe0"/>
  <polygon points="108,90 124,90 150,162 134,162" fill="#1e3a5f"/>
  <circle cx="134" cy="60" r="9" fill="#c0392b"/>
</svg>
